<svg width="11" height="7" viewBox="0 0 11 7" fill="none" xmlns="http://www.w3.org/2000/svg">
<path fill-rule="evenodd" clip-rule="evenodd" d="M0.229529 0.226107C0.372788 0.0882766 0.564907 0.0129611 0.763669 0.0167113C0.96243 0.0204615 1.15157 0.102971 1.28953 0.246107L4.99953 4.18411L8.70953 0.246107C8.77697 0.171762 8.85864 0.11171 8.94971 0.0695091C9.04078 0.0273082 9.1394 0.00381725 9.23971 0.000427773C9.34003 -0.0029617 9.44001 0.0138191 9.53372 0.0497766C9.62743 0.0857341 9.71297 0.140137 9.78527 0.20976C9.85757 0.279383 9.91516 0.36281 9.95463 0.455099C9.9941 0.547388 10.0146 0.64666 10.015 0.747033C10.0154 0.847405 9.99568 0.946836 9.95694 1.03943C9.91821 1.13203 9.86128 1.21591 9.78953 1.28611L5.53953 5.78611C5.46957 5.85869 5.38569 5.91643 5.29291 5.95586C5.20012 5.9953 5.10034 6.01563 4.99953 6.01563C4.89871 6.01563 4.79893 5.9953 4.70615 5.95586C4.61337 5.91643 4.52949 5.85869 4.45953 5.78611L0.209529 1.28611C0.0716989 1.14285 -0.00361659 0.950729 0.000133631 0.751967C0.00388385 0.553205 0.0863929 0.364064 0.229529 0.226107Z" fill="#012148"/>
</svg>
